<?xml version="1.0" encoding="UTF-8"?>
<svg xmlns="http://www.w3.org/2000/svg" version="1.1" xmlns:xlink="http://www.w3.org/1999/xlink" viewBox="0 0 927 240">
  <defs>
    <style>
      .cls-1 {
        fill: #121212;
      }

      .cls-2 {
        isolation: isolate;
      }

      .cls-3 {
        display: none;
      }
    </style>
  </defs>
  <!-- Generator: Adobe Illustrator 28.7.4, SVG Export Plug-In . SVG Version: 1.2.0 Build 166)  -->
  <g>
    <g id="Layer_1">
      <g id="Layer_1-2" data-name="Layer_1" class="cls-3">
        <image class="cls-2" width="641" height="785" transform="translate(145.5 -263.6)" xlink:href="willingboro-logo-1.png"/>
      </g>
      <g id="Layer_2">
        <path class="cls-1" d="M59.2,217.1s-.3.3-.6.3c-.5,0-.8-.2-.8-.3-.3-.5-.3-1-.3-1.4,0-2,2.5-5.5,17.2-6-.9.4-2.8,1.3-4.1,3.4-.2.3-1.5,2.9-.3,4.2.8.9,2.5,1,3.2.3s.4-.5.3-.6c0-.2-.6.2-1.3,0h0c-.3,0-.6-.3-.7-.6-.4-.7-.2-1.5,0-2.4.6-2,2.9-4.3,13-4.2-7,9.3,1.6,7.9,1.6,7.9-.7-.6-1.9-1.9-1.9-3.3,0-2.8,4.5-4.4,5.8-4.9,3.9-1.4,8.4-1.3,8.4-1.3,4.9.3,8.1.2,11.5,2,1.2.6,2.3,1.5,3.2,2.5,1,1.2,1.9,2.9-.3,5,0,0,7.8-.1.6-7.7,7.4-1.4,18.1,3.7,11.3,7.7,10.7.9-.6-8.2-.6-8.2,4.1-.2,7.3.4,9.4,1,1.8.5,7.1,1.9,7.9,4.8,0,.2.3,1.2-.1,1.6-.6.6-2.1-.3-2.3,0-.1.2.8,1.3,1.9,1.3s2.4-1.1,2.6-2.3c.4-1.9-2.1-3.8-3.6-4.9-3.9-2.9-8.2-3.4-9.4-3.6-1.7-.2-2,0-5.2-.3-2.3-.2-3.9-.5-4.9-.6-1.6-.3-2.9-.6-3.2-.6-3.2-.8-7.3-4.5-10.1-9.7-3.5-6.6-3.6-12.9-3.6-14.3,0-5.7-1.6-67.9-1.6-67.9,0-1.1,0-5.2,3.2-8.1.6-.6,3.4-3.1,6.2-2.3,1.3.4,2,1.3,2.3,1.6,1.9,2.4,1.4,6.6-1,10.7-.2.5-.4,1.3-.3,2.3,0,1,.4,2,.6,1.9.2,0,.2-1.1.6-2.6,0,0,.3-.8.3-1,.5-.5,1.1-1.3,1.6-2.3.6-1.1.9-2.2,1-2.9,0-.9,0-2-.3-3.2-.3-1.5-.8-2.7-1.3-3.6,1,0,2.9.5,4.9,1.6,1.8,1.1,3,2.4,3.6,3.2,2.5,4.6,2.4,8.9.3,10.4-.4.3-1.3.8-2.9.6,0,.2.2.7.6,1,.5.3,1,.2,1.6,0,.4,0,1.2-.4,1.9-1,.3-.4.7-1.1,1-1.9.2-.6.3-1.2.3-1.6.2,0,.4.4.6.6,1.1,1.3,1.3,2.2,1.9,3.6,1,2,2.2,3.2,2.9,3.9.8.7,1.5,1.3,1.9,1.6,1.1.7,2.4.7,3.2,0,.9-.7,1-1.8,1-1.9-.1.2-.6,1-1.6,1.3-1.3.4-2.4-.2-2.6-.3-.9-1-2.3-2.8-3.6-5.2-1.5-2.8-1.6-4.4-2.9-7.1-.7-1.6-2-3.9-4.2-6.5-.7-.8-4-4.6-9.7-5.2-6.4-.6-10.7,3.3-11.4,3.9.5-1.8,2.2-6.6,6.9-9.5,6.3-3.9,13.3-1.6,16.5-.5,1,.3,8.3,2.8,12.7,8.8.8,1.1,1.7,2.6,3.6,4.5,1.7,1.8,7.4,6.5,5.5,4.9,2.2,2,2.8,3.7,2.9,4.9,0,.5,0,.9-.3,4.2,0,0,0,.4-.3.6,0,0-.3.3-.6.3.3,0,.9,0,1.6-.3,1.1-.6,1.3-1.8,1.3-1.9v-2.9c0-1-.2-1.8-.3-2.6,1.4.2,3.2.2,5.2-.3,2.9-.8,3.6-2.2,6.5-2.6,1,0,3.4-.5,4.9,1s1.1,1.2,1,2.3c-.1.9-1.8,3-1.3,2.3.2,0,.8,0,1.3-.3.3-.2.5-.5.6-.6.9-1.2,1-2.9.3-4.2s-2.1-2.2-3.6-2.3c.4-.6,1-1.6,1.3-2.9.4-1.7.2-3.1,0-3.9-.5,1.7-1.9,5.6-5.8,7.9-3.6,2.2-7.9,2.2-8.2,1.5-.2-.6,2.4-1.3,3.9-4.2,0-.2.2,0,.5-.9s.6-1.5.8-2.3v-4.5c0-3.9.1-5.9.6-7.8.9-3.2,2.5-5,2.3-5.2s-2,1.6-3.2,3.9c-1.4,2.6-1.8,5.1-1.9,6.8-.2,0-1.6-1.4-3.2-1-.9.3-1.7,1-1.6,1.3.2.4,2-.6,3.6.3.7.4,1,.9,1.3,1.3.8,1.2.9,2.3,1,2.9,0,.6,0,1.4-.3,2.3-.5,1.7-2,3.8-4,4.6-3.7,1.5-7.8-1.8-9.3-3-2.8-2.3-2.2-3.3-5.8-6.8-3-2.8-4.7-3.5-4.5-4.5.3-1.4,3.3-1,7.8-2.9,1.4-.6,5.8-2.5,9.1-6.5,2.5-3,4.4-7.3,4.5-7.5.7-2.8,1.3-5.1,1.6-6.5,1.6-6.8,1.7-8.7,3.6-10.7,1.4-1.5,3.4-2.7,3.2-2.9,0,0-.8.2-1,.3-3.3,1.6-5.2,5.5-5.2,5.5-2.7,5.5-1.5,9.5-3.6,13.3-.2.3-1.6,2.9-1.6,2.9,0-1.5,0-3.8-.6-6.5-1-3.8-2.5-4.5-3.9-9.1-.9-2.9-1.2-5.5-.3-7.8.2-.5.8-2.1,1.9-2.3.7,0,1.9.4,1.9.3v-.2h0c0-.5-.7-1-.7-1h0c-.6-.5-.9-.3-1.6-.3s-1.7.6-2.7,2.3c-1.6,2.7-.7,6-.5,6.8.5,2,1.4,3.1,1,3.6-.5.5-1.7-.9-3.6-.6-1.6.2-3.1,1.5-3.6,2.9-.6,1.8.3,4.2.3,4.2,0,0,.6-4.9,3.2-5.6,3-.8,5.7,3.3,5.9,3.7,3.4,5.1.3,11.8,0,12.3-1.7,3.5-4.6,5.6-6.5,6.5-1.5.7-2.9,1-2.9,1-.5,0-1,0-3.2.3,0,0,1.8-2.4,1.6-5.7-.1-1.8-1-2.2-2.6-5.9-1.1-2.5-1.6-3.8-1.6-5.2s.3-2.1,1.6-6.5c-.6.6-1.4,1.5-1.9,2.6-1.9,3.5-1.3,7.1-1,8.4-1.9,2.8-2.1,3.5-1.9,3.6.2.2,1.1-1.2,2.6-1.3.9,0,2,.2,2.6,1,.4.4.5.9,1,2.9,0,0,.4,3.6-2.1,6.1-2.4,2.4-5.9,2.2-8.3,2-3.2-.2-3.2-1.1-6.8-1.6-2.1-.3-6.5-1-10.7,1-3,1.4-6.1,4.2-6.2,4.2,0,0,.6-13.6,11.7-16.9s17.2-14,17.2-14c.8-1.4,1.8-3.5,2.3-6.2.2-1.3.3-2.5.3-3.6.4-3.5,1.2-6.2,1.9-8.1,1.1-2.8,3-6.5,3-6.5h0c-3.7,4.3-4.9,8.1-4.9,8.1-1.4,4.5-.7,5-1.9,8.4-.8,2.3-1.9,4.1-2.6,5.2-5.7-7.8-5.9-12.6-4.9-15.6.8-2.3,2.6-4,2.3-7.1,0-1.2-.5-2-2.3-6.5.5,1.5,1.3,4.7.3,8.4-.4,1.6-1,2.9-1.6,3.9-.3-.2-3.3-1.9-6.1-.5-2.2,1.2-3,3.8-2.7,4,.3.3,2.2-3.3,4.9-3.2,1.5,0,2.7,1.2,3.6,2.3-.3,3.1.2,5.4.6,6.8,1.2,3.6,3.4,5.5,3.6,9.4,0,1,0,1.8-.3,2.6-.4,1.3-1.1,2.3-2.9,3.9-3,2.7-5.9,4.3-7.1,4.9-2,1-3,1.3-4.5,1.9-2.5,1.1-5.9,2.9-9.7,6.2.3-6.2,1.3-11,2.3-14.3.9-3.2,1.9-5.6,4.2-7,.4-.2,2.9-1.8,4.6-.8,2.4,1.4.9,7,1.6,7.1.5,0,2.3-3,1.3-5.8-.3-.9-.9-1.6-1.5-2.2-1.7-1.6-4.3-1.8-6.3-.8-.5.3-1.1.6-1.6,1-4.2,3.2-4.3,8.9-4.9,8.8-.5,0-.7-4.8.6-10.1.7-2.8,1.6-5,2.3-6.5l12.3-18.8c.7-1.7,1.5-4.1,1.6-7.1,0-2.9-.3-5.8-.6-5.8,0,0-.2.2-.6,3.9-.5,3.9-.6,5.1-1.3,6.8-.4,1-1,1.8-1.3,2.3,0-.2-1.4-2.9-3.6-2.9s-2.7,1.1-2.6,1.3c0,.2,1.6-.7,2.9,0,.6.3,1.1,1,1.3,1.6v.7c0,.8-.2,1.5-.5,2.2-.2.5-.4.9-.5.9-2.2,3.7-4.5,6.2-4.5,6.2-1.4,1.5-3.3,3.8-5.5,7.1,0-5-.2-10-.3-14.9.8-3,1.7-5.3,2.3-6.8,1.4-3.5,2.4-5.1,3.2-8.4.6-2.6.8-4.8.7-4.8s-.5,2.1-1.7,4.8c-.8,1.9-1.7,3.3-2.3,4.2,0,0-5.2,8.8-4.5,9.7h0s-.4,0-.7,0c-.2,0-.3-.4-.3-.6,0-.4-.3-.9-.3-1.3s-.2-.9-1.6-3.9c-1.2-2.4-1.7-3.6-2.6-4.9-.6-1-.8-1.1-1.3-1.9s-1.1-2-1.6-3.6c0,0,0-.3-.6-2.9,0,.8-.2,1.9,0,3.2,0,1,.4,1.9.6,2.6.8,1.7,1.5,3.4,2.3,5.2,1.1,2.6,2,5,2.9,7.5,0,5.6.2,11.3.3,16.9l-11.4-14s-.3-7.5,3.9-4.9c.8.5,1,1.1,1.1,1.1,0,0-.9-2.5-2.7-2.8-1-.2-2,.4-2.6,1-.8.8-1.2,2.1-1.3,2.3-.9-.9-1.4-1.7-1.6-2.3-1.8-3.7-.9-8.5-1.6-10.1,0-.2-.5-.9-.6-1.9v-.2c-.2,0,0,10.6,0,10.6,0,0,.3,3.9,3.2,6.8s10.4,15.9,10.4,15.9c.2.3.4.8.6,1.3,3.5,7.4,3,14.8,2.3,14.9-.6,0-.6-4.9-4.5-8.1-.7-.6-1.5-1.1-2.3-1.4-2.1-.9-4.5-.6-6.1,1.1-.5.5-.9,1.1-1.1,1.8-1.1,3.1,1,6.5,1.4,6.4s-1.3-3.9.6-6.5c.7-.9,1.7-1.4,2.3-1.6.7.2,1.8.5,2.9,1.3,1.1.7,2.3,2,4.5,8.1,0,0,1.4,4,2.3,11.4,0,.6.2,1.6-.3,1.9-.9.5-2.7-1.7-5.8-3.9-2.7-1.9-3.2-1.7-7.8-4.2-1.9-1.1-4.6-2.7-7.8-4.9-2.5-2.2-3.1-4.2-3.2-5.5-.2-2.4,1.1-2.8,3.2-9.4.5-1.6,1.2-3.9,1.3-6.8v-1.6c.3-.2,2-1.7,4.2-1.3.3,0,1.7.3,2.6,1.3.8.9.8,2,1,1.9.2,0,.4-1.6-.3-2.9-.8-1.5-2.6-2.3-4.2-2.3s-3.9,1.3-3.9,1.3c0,0-2.3-4.5-1.3-12,0-.7.4-1.6.3-1.7-.2,0-2.1,3.2-2.3,7.2,0,2.3.4,4.3,1,5.7.5,1.3.8,2.6.9,4,.2,3.4-.4,5.8-1.2,7.5-1.3,2.6-3.2,6.2-3.2,6.2-1-1-1.6-1.9-1.9-2.6-1-1.8-1.3-3.5-1.6-5.5-.2-1.4-.3-2.4-.3-2.6-.2-2-1.3-5.4-5.8-11,1,1.6,2.3,4.2,3.2,7.5.9,3,.5,3.4,1.3,7.1.6,2.9,1.6,7.2,4.2,11.7,1.1,1.8,1.9,3.3,3.6,4.9,2.2,2.1,3.7,2.5,10.4,5.8,3.7,1.9,4.7,2.1,6.5,3.6,1.3,1,4.5,3.7,6.2,8.4.9,2.5,1,4.8,1,6.2-5.2-4.5-9.7-5.6-12.7-5.8-7.6-.5-11.7,4.3-16.9,1.6-2.5-1.3-4.7-4-4.5-6.8,0-1.8,1.3-4.3,3.2-4.5,1.4-.2,2.6,1,2.9,1.3,0-.5,0-1.2-.3-1.9-.4-.8-1.3-.8-1.6-1.6-.2-.5,0-1,0-1.3.4-1.8.2-4.1,0-5.2-.2-.8-.7-2.8-2.6-4.9.7,2.7.9,4.9,1,6.5,0,1.6,0,2.6-.3,3.9-.4,1.2-.7,1.5-1.9,3.9-1,1.9-1.5,2.9-1.6,3.6-.2,1.1-.3,3,1.6,5.8-1.6,0-5.8-.5-9.3-3.6-4.1-3.7-5.9-9.8-4-14.6.9-2.3,3.3-5.7,5.8-5.5.9,0,1.9.5,2.6,1.3,0,0,.5.6,1.3,3.9h0c1.1-2,1.1-4.1,0-5.3-1.4-1.6-4.4-1.2-4.6-1.1-1.1.2-1.6.6-1.9.3-.6-.5,1.2-2.1,1.3-4.9,0-1.7-1.4-6.5-1-4.9h0s-.5-2.6-2.1-3.1c-1.6-.4-3.2.9-3.1,1.1,0,.3,1.8-.5,2.9.3.7.5.9,1.3,1,1.9.5,2.3.5,4.1.3,5.2-.3,2.3-.9,3-3.6,9.7-.6,1.6-1.1,2.8-1.3,4.5-.2,1.8,0,3.3,0,4.2-1.1-1.9-2.5-4.7-3.2-8.4-.6-3.1-.2-3.8-1-5.8-1.9-5.3-7.6-7.9-7.5-7.8,1.3.8,3.1,2.3,4.5,4.5,2.4,3.8,1.6,6.7,2.3,10.4,1.4,4.9,3.4,8.4,4.9,10.7,1.7,2.6,2.8,4.2,4.9,5.5,0,0,.9.5,6.2,2.6h0l7.5,2.9c-1.3,1.2-3.1,3-5.2,5.5-2.7,3.2-3.1,4.4-5.2,6.2-1.9,1.6-4.5,3.7-7.8,3.2-2.4-.4-5.1-2.1-5.8-4.9,0-.2-.8-3.1.9-5.2.3-.4,1.1-1.3,2.4-1.6,1.2-.3,2.2.3,2.3,0,0-.2-.7-1-1.6-1.3-1.5-.5-2.9.4-3.2.6-.5-2.3-2.9-9.7-5.2-10.7.6,1.6,3.7,5.4,2.9,11.7-1,4.3-.2,6.8.7,8.3,1.6,2.5,4.9,4.2,4.5,5s-.4.3-.6.3c-2.5.4-10-.8-11.7-5.5,0,0-.3-1.2-1-3.6-.9,2-.7,3.3-.3,4.2.5,1.1,1.5,1.7,1.3,2.3-.2.5-1.2,0-2.3.6-1.5.7-2.4,2.8-1.9,4.5,0,.3.4,1.6,1.3,1.9.2,0,.5,0,1.3.3,0,0-1.4-2.2-.5-4,1-1.9,3.6-1.9,4.1-1.9,2.5,0,2.7,1.6,6.2,2.6.5.2.9.2,6.5.6,0,1-.4,3.2,0,5.2,0,.2.2.9.6,1.6.2.4.8,1.3,1.6,1.3s.7-.2.6-.3c0-.2-.4-.2-.6-.3-1.2-.6-.5-5,0-8.1,5-3.6,8.3-7.2,10.4-9.7,2.4-3,3.3-4.8,6.2-6.8,3.7-2.7,7.5-3.5,9.4-3.9,3.1-.6,7.2-1.4,11.7.3,6.8,2.7,10.1,9.6,9.6,10-.3.3-2.1-2-6-2.9-1.4-.3-2.6-.3-3.2-.3-3.8,0-6.5,1.3-7.1,1.6-2.9,1.4-4.7,3.4-5.5,4.5-1.1,1.7-2.2,3.7-3.2,5.8-1.1,2.2-1.9,4.3-2.6,6.2-1.3,3.8-3.8,6-5.7,5.9-.9,0-1.8-.5-2.8-1.7s-1.4-2-1.5-1.9c-.2,0,1.8,4.5,3.1,4.5h1c.6,0,1.7-.3,2.9-1,4.5-2.6,5.2-9.3,6.2-9.1.2,0,0,.4.6,1.6.6,1.5,1,2.6,1.9,2.9.5.2,1.2,0,1.6,0s.6,0,1.3-.3c-.5,0-1.4,0-2.3-.6-2.2-1.3-3-4.3-2.6-6.5.2-1.1.7-1.8,1.6-3.2,1.1-1.7,2.5-3.7,4.9-4.9.3,0,1.6-.5,4.2-1.3,0,.3-1.3,5.3-.6,8.4.2,1.1.4,1.8,1,2.6.5.7.9.8,1.3,1.6,0,.3.5,1,.3,1.9,0,.4-.2.8-.3,1,0,0,2.3.3.6-4.2-1.2-3.4-2.7-7.2-1.1-10,.7-1.2,1.9-2.1,3.1-2.4,2.6-.6,5.3,1.8,6.5,3.6.4.6.5.9,1.9,4.5l-1.6,71.1c-1.3,14-6.5,21.4-16.2,24-2.9.3-7.4.6-12.4,1.8-.3,0-.7.1-1,.2-1.1.2-4.4.8-7,3.1,0,0-5,4.7-1.7,5.9,2.2.8,3.2-.6,2.9-1l-.8.6Z"/>
      </g>
      <g id="Layer_3">
        <g>
          <g>
            <path class="cls-1" d="M236.7,53v1.9c-1.1.2-1.8.7-2.1,1.7-.3.9-.4,2-.3,3.1.2,1.2.4,2.2.7,3.2l14.3,40.2-2.6,4.1,11.3-30.7,1.3,2.7-14.5,40.8c-.8,0-1.6,0-2.4,0h-5.1c-.9,0-1.7,0-2.4,0l-21.9-59c-.8-2.2-1.7-3.7-2.7-4.6-1-.9-2-1.4-2.8-1.4v-1.9c2.3,0,4.9,0,8,.2h16.1c2.1,0,3.9,0,5.2-.2h0ZM305,53v1.9c-1.4.7-3,2-4.5,4.1-1.6,2-3,5.1-4.3,9.2l-15.9,51.8c-.8,0-1.6,0-2.4,0h-5.1c-.9,0-1.7,0-2.4,0l-19.8-60.6c-.5-1.6-1.2-2.8-2-3.4-.8-.6-1.8-1-2.8-1v-1.9c2.1,0,4.7,0,7.6.2h17.2c2.6,0,4.7,0,6.3-.2v1.9c-2,0-3.5.3-4.5.7-1.1.4-1.7,1.2-1.8,2.3-.2,1.1.1,2.8.9,5l12.9,39.3-2.7,5.8,9.5-30.5c1.8-5.6,2.6-10,2.6-13.3s-.8-5.6-2.3-7c-1.4-1.4-3.4-2.2-6-2.2v-1.9c2.4,0,4.5,0,6.4.2h9.9c1.3,0,2.5,0,3.4-.2l-.2-.2Z"/>
            <path class="cls-1" d="M338.6,62.5v1.9c-1.9,0-3.3.3-4.3.7-1,.4-1.6,1.2-1.9,2.3-.3,1.1-.5,2.8-.5,5.1v37.4c0,2.3.2,4,.5,5.1s1,1.9,1.9,2.3c1,.4,2.4.6,4.3.8v1.9c-1.8,0-4.1-.2-6.9-.2h-17.7c-3,0-5.3,0-7,.2v-1.9c2,0,3.4-.4,4.3-.8s1.6-1.1,1.9-2.3c.3-1.1.5-2.8.5-5.1v-37.4c0-2.3-.2-4-.5-5.1s-1-1.9-1.9-2.3c-1-.4-2.4-.6-4.3-.7v-1.9c1.7,0,4,0,7,.2h17.7c2.8,0,5.1,0,6.9-.2Z"/>
            <path class="cls-1" d="M375.8,62.5v1.9c-1.9,0-3.3.3-4.3.7-1,.4-1.6,1.2-1.9,2.3-.3,1.1-.5,2.8-.5,5.1v39.3c0,1.7.2,3,.5,3.8.3.9.9,1.4,1.6,1.7.7.3,1.6.4,2.7.4h2.2c2.5,0,4.8-.7,7.1-2,2.3-1.3,4.4-3.5,6.2-6.5,1.8-3,3.2-7,4.1-12h2.2c-.2,2.1-.3,4.7-.3,7.7s0,3.6.1,6.3c0,2.8.3,5.6.5,8.6-3.1,0-6.6-.2-10.4-.2h-30.3c-4,0-7.7,0-11.2.2v-1.9c2,0,3.4-.4,4.3-.8s1.6-1.1,1.9-2.3c.3-1.1.5-2.8.5-5.1v-37.4c0-2.3-.2-4-.5-5.1s-1-1.9-1.9-2.3c-1-.4-2.4-.6-4.3-.7v-1.9c1.8,0,4.2,0,7.2.2h17.8c2.7,0,4.9,0,6.7-.2v.2Z"/>
            <path class="cls-1" d="M432.4,62.5v1.9c-1.9,0-3.3.3-4.3.7-1,.4-1.6,1.2-1.9,2.3-.3,1.1-.5,2.8-.5,5.1v39.3c0,1.7.2,3,.5,3.8.3.9.9,1.4,1.6,1.7.7.3,1.6.4,2.7.4h2.2c2.5,0,4.8-.7,7.1-2,2.3-1.3,4.4-3.5,6.2-6.5,1.8-3,3.2-7,4.1-12h2.2c-.2,2.1-.3,4.7-.3,7.7s0,3.6.1,6.3c0,2.8.3,5.6.5,8.6-3.1,0-6.6-.2-10.4-.2h-30.3c-4,0-7.7,0-11.2.2v-1.9c2,0,3.4-.4,4.3-.8s1.6-1.1,1.9-2.3c.3-1.1.5-2.8.5-5.1v-37.4c0-2.3-.2-4-.5-5.1s-1-1.9-1.9-2.3c-1-.4-2.4-.6-4.3-.7v-1.9c1.8,0,4.2,0,7.2.2h17.8c2.7,0,4.9,0,6.7-.2v.2Z"/>
            <path class="cls-1" d="M489,62.5v1.9c-1.9,0-3.3.3-4.3.7-1,.4-1.6,1.2-1.9,2.3-.3,1.1-.5,2.8-.5,5.1v37.4c0,2.3.2,4,.5,5.1s1,1.9,1.9,2.3c1,.4,2.4.6,4.3.8v1.9c-1.8,0-4.1-.2-6.9-.2h-17.7c-3,0-5.3,0-7,.2v-1.9c2,0,3.4-.4,4.3-.8s1.6-1.1,1.9-2.3c.3-1.1.5-2.8.5-5.1v-37.4c0-2.3-.2-4-.5-5.1s-1-1.9-1.9-2.3c-1-.4-2.4-.6-4.3-.7v-1.9c1.7,0,4,0,7,.2h17.7c2.8,0,5.1,0,6.9-.2Z"/>
            <path class="cls-1" d="M554.8,62.5v1.9c-1.9.4-3.3.9-4.3,1.7-1,.8-1.6,1.9-1.9,3.4-.3,1.5-.5,3.8-.5,6.8v43.6c-1.1,0-2.3-.2-3.4-.2s-2.3,0-3.4.2l-37.8-43.4v29.6c0,2.9.3,5.1.8,6.7s1.6,2.7,3.1,3.4c1.5.7,3.7,1.3,6.6,1.7v1.9c-1.6,0-3.3-.2-5.3-.2h-10.5c-1.5,0-2.6,0-3.6.2v-1.9c2-.4,3.4-1,4.3-1.7s1.6-1.9,1.9-3.4c.3-1.6.5-3.8.5-6.7v-33.6c0-2.3-.2-4-.5-5.1s-1-1.9-1.9-2.3c-1-.4-2.4-.6-4.3-.7v-1.9c.9,0,2.1,0,3.6.2h11.5c2.3,0,4.3,0,6.2-.2l30.1,34.4v-20.6c0-3-.3-5.2-.8-6.8-.5-1.5-1.6-2.7-3.1-3.4-1.5-.8-3.7-1.3-6.6-1.7v-1.9c1.6,0,3.4,0,5.3.2h10.5c1.4,0,2.6,0,3.5-.2Z"/>
            <path class="cls-1" d="M596.2,61.2c3,0,5.4.3,7.5.9,2,.6,3.8,1.3,5.4,2.3,1.6.9,3.1,2,4.5,3,1.3,1,2.2,1.2,2.9.5s1.1-2.4,1.4-5.3h2.2c0,2-.2,4.5-.3,7.4v11.5h-2.2c-.4-2.1-1-4.1-1.7-6s-1.7-3.6-3-5.1c-1.5-1.6-3.2-3-5.1-4.2-1.9-1.2-4.2-1.8-6.9-1.8-4.3,0-8.1,1.1-11.3,3.4-3.2,2.2-5.7,5.4-7.4,9.4-1.7,4.1-2.6,8.8-2.6,14.3,0,9.8,1.5,17,4.4,21.4,3,4.4,7.2,6.7,12.8,6.7s1.7-.2,2.4-.5,1.3-.7,1.7-1.2.8-1.1,1-1.8c.2-.7.3-1.6.3-2.5v-9.3c0-2.6-.2-4.5-.7-5.8-.4-1.3-1.3-2.1-2.5-2.6-1.2-.4-3-.7-5.4-.8v-1.9c2.3,0,5,0,8.2.2h16.7c2.4,0,4.3,0,5.8-.2v1.9c-1.1,0-1.9.3-2.5.7-.6.4-.9,1.1-1.1,2.3-.2,1.1-.3,2.9-.3,5.2v16.8h-1.9c0-.9-.3-1.9-.6-2.9s-.9-1.5-1.7-1.5-1.4.2-2.3.5c-.8.3-1.7.8-2.7,1.3-1.2.6-3.2,1.4-6.1,2.4-2.9,1-6.2,1.5-9.9,1.5-7.2,0-13.4-1.1-18.6-3.4-5.2-2.3-9.1-5.6-11.9-9.9-2.8-4.3-4.2-9.5-4.2-15.5s1.5-12,4.6-16.6c3.1-4.7,7.3-8.3,12.6-10.8,5.4-2.5,11.5-3.8,18.5-3.8v-.2Z"/>
            <path class="cls-1" d="M628.7,62.5c1.5,0,3.5,0,6,.2h23.6c8.8,0,15.1,1.1,18.9,3.3,3.8,2.2,5.8,5.4,5.8,9.7s-1.4,6-4.3,8.3c-2.9,2.2-7.8,4-14.7,5.3v.2c6.2.6,11.1,1.6,14.6,3s5.9,3.2,7.3,5.2c1.4,2,2.1,4.3,2.1,6.8,0,5-2.3,8.8-6.9,11.5-4.6,2.7-11.4,4-20.5,4s-3.9,0-7,0-6.8,0-11.1,0h-7.6c-2.5,0-4.5,0-6,.2v-1.9c2,0,3.4-.4,4.3-.8.9-.4,1.6-1.1,1.9-2.3.3-1.1.5-2.8.5-5.1v-37.4c0-2.3-.2-4.1-.5-5.2s-1-1.9-1.9-2.3-2.4-.6-4.3-.7v-1.9h-.2ZM657.8,64.4c-1.8,0-2.9.5-3.4,1.6s-.8,3.2-.8,6.5v37.4c0,2.2,0,3.9.3,5s.6,1.9,1.2,2.3c.6.4,1.5.6,2.7.6,3.9,0,6.7-1.2,8.5-3.5,1.7-2.4,2.6-5.7,2.6-10.2s-.9-7.6-2.8-9.9c-1.9-2.3-5-3.4-9.3-3.4h-8.8v-1.6h7.2c2.5,0,4.3-.6,5.7-1.7,1.3-1.1,2.2-2.6,2.7-4.5s.8-4,.8-6.4c0-4-.5-7-1.5-9.1s-2.7-3.1-5.1-3.1h0Z"/>
            <path class="cls-1" d="M727.3,61.2c6.7,0,12.6,1.1,17.7,3.4,5.1,2.3,9,5.6,11.8,10s4.2,9.7,4.2,16-1.4,11.5-4.3,16.1c-2.9,4.6-6.8,8.2-12,10.7-5.1,2.6-11,3.8-17.6,3.8s-12.6-1.1-17.7-3.4c-5.1-2.3-9-5.7-11.8-10.1s-4.2-9.7-4.2-16,1.4-11.5,4.3-16.1c2.9-4.6,6.9-8.2,12-10.7,5.1-2.6,10.9-3.8,17.5-3.8h0ZM726.9,62.9c-3,0-5.5,1.2-7.7,3.6s-3.9,5.8-5.1,10.1c-1.2,4.3-1.8,9.2-1.8,14.8s.7,10.7,2,14.9c1.4,4.2,3.2,7.5,5.5,9.8s4.9,3.4,7.7,3.4,5.5-1.2,7.7-3.6,3.9-5.8,5.1-10.1c1.2-4.3,1.8-9.2,1.8-14.8s-.7-10.8-2-15c-1.4-4.2-3.2-7.4-5.5-9.7-2.3-2.3-4.9-3.4-7.7-3.4Z"/>
            <path class="cls-1" d="M767.1,62.5c1.5,0,3.5,0,6,.2h23.6c9.8,0,16.8,1.3,21.1,3.9s6.4,6.1,6.4,10.7-.4,3.8-1.3,5.6c-.9,1.9-2.4,3.6-4.5,5.1s-5.1,2.8-8.7,3.8c-3.7,1-8.4,1.6-14,1.8l-11.9.4v-1.9h11c3,0,5.2-.6,6.8-1.8,1.5-1.2,2.6-2.9,3.1-5s.8-4.4.8-6.9c0-4.4-.7-7.8-2-10.2-1.3-2.4-3.7-3.6-7.1-3.6s-2.9.5-3.4,1.6-.8,3.2-.8,6.5v37.4c0,2.3.2,4,.5,5.1s1,1.9,1.9,2.3,2.4.6,4.3.8v1.9c-2,0-4.6-.2-7.8-.2h-17.8c-2.5,0-4.5,0-6,.2v-1.9c2,0,3.4-.4,4.3-.8.9-.4,1.6-1.1,1.9-2.3.3-1.1.5-2.8.5-5.1v-37.4c0-2.3-.2-4.1-.5-5.2s-1-1.9-1.9-2.3-2.4-.6-4.3-.7v-1.9h-.2ZM787.5,92.7c3.4,0,6,.2,7.8.3,1.8,0,3.2,0,4.3,0s2.2,0,3.3.3c4.7.4,8.8,1.4,12.1,2.7,3.3,1.4,5.4,3.8,6.2,7.4l2,8.3c.4,1.6.9,2.7,1.5,3.3.6.6,1.4.9,2.5.9s1.1,0,1.7-.4c.6-.3,1.1-.6,1.6-.9l1.3,1.2c-1.6,1.6-3.4,2.9-5.5,3.8-2.1,1-4.9,1.5-8.4,1.5s-7.4-.8-9.6-2.3c-2.2-1.5-3.5-3.4-4.1-5.8l-2.6-10.7c-.6-3.7-1.6-6.1-2.8-7.1s-2.9-1.6-5.1-1.6h-6.1v-1.1h-.1Z"/>
            <path class="cls-1" d="M867,61.2c6.7,0,12.6,1.1,17.7,3.4,5.1,2.3,9,5.6,11.8,10s4.2,9.7,4.2,16-1.4,11.5-4.3,16.1c-2.9,4.6-6.8,8.2-12,10.7-5.1,2.6-11,3.8-17.6,3.8s-12.6-1.1-17.7-3.4c-5.1-2.3-9-5.7-11.8-10.1s-4.2-9.7-4.2-16,1.4-11.5,4.3-16.1c2.9-4.6,6.9-8.2,12-10.7,5.1-2.6,10.9-3.8,17.5-3.8h0ZM866.7,62.9c-3,0-5.5,1.2-7.7,3.6s-3.9,5.8-5.1,10.1c-1.2,4.3-1.8,9.2-1.8,14.8s.7,10.7,2,14.9c1.4,4.2,3.2,7.5,5.5,9.8s4.9,3.4,7.7,3.4,5.5-1.2,7.7-3.6,3.9-5.8,5.1-10.1c1.2-4.3,1.8-9.2,1.8-14.8s-.7-10.8-2-15c-1.4-4.2-3.2-7.4-5.5-9.7-2.3-2.3-4.9-3.4-7.7-3.4Z"/>
          </g>
          <g>
            <path class="cls-1" d="M233,145.3c2.4,0,4.3.4,5.9,1.1,1.5.7,2.9,1.5,4.1,2.5.7.5,1.3.6,1.7.2.4-.4.6-1.4.8-3h1.2c0,1.4-.1,3.2-.2,5.3v8.3h-1.2c-.1-1.7-.4-3.3-.7-4.6-.3-1.4-.8-2.6-1.5-3.6s-1.6-2-2.8-2.8c-.8-.5-1.6-.9-2.4-1.2-.9-.3-1.7-.4-2.6-.4-2.1,0-3.8.6-5.1,1.7-1.3,1.1-2.4,2.6-3.1,4.4-.7,1.8-1.3,3.8-1.5,6-.3,2.2-.4,4.2-.4,6.3s.1,4.1.4,6.3c.3,2.2.8,4.1,1.5,6,.7,1.8,1.8,3.3,3.1,4.4,1.3,1.1,3,1.7,5.1,1.7s1.8-.2,2.6-.5,1.7-.7,2.4-1.2c1.8-1.1,3-2.6,3.7-4.5.6-1.9,1.1-4.3,1.3-7.3h1.2v8.6c0,2.2,0,4,.2,5.5h-1.2c-.1-1.6-.4-2.5-.7-2.9s-.9-.3-1.7.2c-1.3.9-2.8,1.8-4.3,2.5s-3.4,1.1-5.8,1.1c-4.1,0-7.7-.8-10.7-2.3-3.1-1.6-5.5-3.8-7.2-6.7s-2.5-6.5-2.5-10.6.9-7.6,2.6-10.6c1.8-3,4.2-5.4,7.2-7.1,3.1-1.7,6.6-2.5,10.6-2.5v-.3Z"/>
            <path class="cls-1" d="M291.8,151.5v1.1c-1.1,0-1.9.2-2.5.4s-.9.7-1.1,1.3-.3,1.6-.3,3v21.5c0,1.3,0,2.3.3,2.9.2.7.6,1.1,1.1,1.3s1.4.4,2.4.4v1.1c-.9,0-2.1-.1-3.7-.1h-10.2c-1.8,0-3.2,0-4.3.1v-1.1c1.1,0,2-.2,2.5-.4s.9-.7,1.1-1.3c.2-.7.3-1.6.3-2.9v-10.3h-12.2v10.3c0,1.3,0,2.3.3,2.9.2.7.6,1.1,1.1,1.3s1.4.4,2.4.4v1.1c-1.1,0-2.5-.1-4.3-.1h-10.2c-1.5,0-2.7,0-3.7.1v-1.1c1.1,0,2-.2,2.5-.4s.9-.7,1.1-1.3c.2-.7.3-1.6.3-2.9v-21.5c0-1.3,0-2.3-.3-3-.2-.6-.6-1.1-1.1-1.3-.6-.2-1.4-.4-2.5-.4v-1.1c.9,0,2.2,0,3.7.1h10.2c1.7,0,3.2,0,4.3-.1v1.1c-1.1,0-1.9.2-2.5.4s-.9.7-1.1,1.3-.3,1.6-.3,3v10.1h12.2v-10.1c0-1.3,0-2.3-.3-3-.2-.6-.6-1.1-1.1-1.3-.6-.2-1.4-.4-2.5-.4v-1.1c1.1,0,2.6,0,4.3.1h10.2c1.5,0,2.8,0,3.7-.1h.2Z"/>
            <path class="cls-1" d="M312.1,151.5l13,28.4c.6,1.2,1.2,2.1,1.7,2.6s1,.8,1.5.8v1.1c-.9,0-2.1-.1-3.6-.1h-9.9c-1.7,0-3.1,0-4.1.1v-1.1c1.5,0,2.5-.4,3-1.1.5-.7.4-1.8-.4-3.5l-8-18.4,1.5-2.3-6.2,14.3c-1,2.3-1.6,4.2-1.8,5.6-.2,1.4-.1,2.5.2,3.3.4.8,1,1.3,1.8,1.6s1.8.5,2.9.5v1.1c-1.3,0-2.5-.1-3.6-.1h-5.7c-.8,0-1.4,0-2,.1v-1.1c.8-.1,1.6-.7,2.4-1.6.8-.9,1.6-2.5,2.6-4.7l11.1-25.5c.6,0,1.2.1,1.8.1s1.2,0,1.8-.1h0ZM315.1,171.6v1.1h-15.1l.5-1.1h14.6Z"/>
            <path class="cls-1" d="M375.4,151.5v1.1c-1.2,0-2.2.2-2.8.4-.6.2-1.1.7-1.3,1.3-.2.6-.3,1.6-.3,3v21.5c0,1.3.1,2.3.3,2.9.2.7.6,1.1,1.3,1.3.6.2,1.6.4,2.8.4v1.1c-1,0-2.4-.1-4-.1h-11.1c-1.9,0-3.5,0-4.6.1v-1.1c1.2,0,2.2-.2,2.8-.4.6-.2,1.1-.7,1.3-1.3.2-.7.3-1.6.3-2.9v-23.8l-12,29.8h-.9l-12.6-29.8v21.6c0,1.7.2,2.9.5,3.9.3.9.9,1.6,1.8,2s2.1.8,3.8,1v1.1c-.9,0-1.9-.1-3-.1h-6c-.8,0-1.5,0-2.1.1v-1.1c1.1-.3,2-.6,2.5-1s.9-1.1,1.1-2,.3-2.2.3-3.9v-19.3c0-1.3-.1-2.3-.3-3-.2-.6-.6-1.1-1.3-1.3-.6-.2-1.6-.4-2.8-.4v-1.1c1.2,0,2.8,0,4.8.1h8.9c.9,0,1.6,0,2.3-.1l8.1,19.3-.8.2,7.8-19.4h11.3c1.6,0,3,0,4-.1h0Z"/>
            <path class="cls-1" d="M378.3,151.5c.9,0,2,0,3.4.1h13.6c5,0,8.6.6,10.8,1.9,2.2,1.2,3.3,3.1,3.3,5.6s-.8,3.5-2.5,4.7c-1.7,1.3-4.5,2.3-8.5,3.1h0c3.6.4,6.4,1,8.4,1.8s3.4,1.8,4.2,3c.8,1.2,1.2,2.5,1.2,3.9,0,2.9-1.3,5.1-4,6.6s-6.6,2.3-11.7,2.3-2.2,0-4,0h-10.8c-1.4,0-2.6,0-3.4.1v-1.1c1.1,0,2-.2,2.5-.4s.9-.7,1.1-1.3c.2-.7.3-1.6.3-2.9v-21.5c0-1.3,0-2.3-.3-3-.2-.7-.6-1.1-1.1-1.3-.6-.2-1.4-.3-2.5-.4v-1.1h0ZM395,152.6c-1,0-1.7.3-2,.9-.3.6-.4,1.9-.4,3.7v21.5c0,1.3,0,2.2.2,2.9.1.7.4,1.1.7,1.3.3.2.9.3,1.5.3,2.2,0,3.9-.7,4.9-2,1-1.4,1.5-3.3,1.5-5.8s-.5-4.3-1.6-5.7c-1.1-1.3-2.8-2-5.3-2h-5v-.9h4.1c1.4,0,2.5-.3,3.3-.9.8-.6,1.3-1.5,1.6-2.6.3-1.1.4-2.3.4-3.7,0-2.3-.3-4-.9-5.2s-1.6-1.8-2.9-1.8h-.1Z"/>
            <path class="cls-1" d="M443.5,151.5c-.1,1.4-.2,2.7-.3,4s0,2.3,0,3v1.9c0,.6,0,1.1.1,1.5h-1.2c-.8-3.4-1.9-5.7-3.6-7-1.6-1.3-3.6-2-5.9-2h-.7c-.6,0-1.1,0-1.5.2-.4.1-.7.4-.9.8-.2.4-.3,1-.3,1.9v24.7c0,.8,0,1.5.3,1.9.2.4.5.7.9.8s.9.2,1.5.2h1.2c1.6,0,3-.3,4.4-1,1.3-.7,2.5-1.7,3.4-3.2,1-1.5,1.7-3.5,2.2-6h1.2c-.1,1-.2,2.3-.2,3.9v3.2c0,1.4.2,2.8.3,4.3-1.8,0-3.8-.1-6-.1h-17.3c-2.3,0-4.4,0-6.4.1v-1.1c1.1,0,2-.2,2.5-.4s.9-.7,1.1-1.3c.2-.7.3-1.6.3-2.9v-21.5c0-1.3,0-2.3-.3-3-.2-.6-.6-1.1-1.1-1.3-.6-.2-1.4-.4-2.5-.4v-1.1c2,0,4.1,0,6.4.1h16.8c2,0,3.8,0,5.4-.1h.2ZM435.1,167.4v1.1h-7.6v-1.1h7.6ZM437.8,161.3c-.1,1.7-.2,3-.2,4v5.2c0,1,.1,2.4.3,4h-1.2c-.1-1.1-.5-2.1-1-3s-1.2-1.7-2.1-2.2-1.9-.8-3.2-.8v-1.1c1.3,0,2.4-.3,3.2-1,.8-.7,1.5-1.5,2-2.4s.8-1.8.9-2.7h1.3Z"/>
            <path class="cls-1" d="M448.4,151.5c.9,0,2,0,3.4.1h13.6c5.6,0,9.6.7,12.1,2.2s3.7,3.5,3.7,6.1-.3,2.2-.8,3.2c-.5,1.1-1.4,2-2.6,2.9s-2.9,1.6-5,2.2c-2.1.6-4.8.9-8.1,1l-6.8.2v-1.1h6.3c1.7,0,3-.4,3.9-1.1.9-.7,1.5-1.7,1.8-2.9s.5-2.5.5-4c0-2.5-.4-4.5-1.1-5.9s-2.1-2.1-4.1-2.1-1.7.3-2,.9c-.3.6-.4,1.9-.4,3.7v21.5c0,1.3,0,2.3.3,2.9.2.7.6,1.1,1.1,1.3s1.4.4,2.4.4v1.1c-1.2,0-2.7-.1-4.5-.1h-10.2c-1.4,0-2.6,0-3.4.1v-1.1c1.1,0,2-.2,2.5-.4s.9-.7,1.1-1.3c.2-.7.3-1.6.3-2.9v-21.5c0-1.3,0-2.3-.3-3-.2-.7-.6-1.1-1.1-1.3-.6-.2-1.4-.3-2.5-.4v-1.1.4ZM460.1,168.9c2,0,3.4.1,4.5.2s1.9,0,2.5,0,1.2,0,1.9.2c2.7.3,5,.8,6.9,1.6s3.1,2.2,3.6,4.2l1.1,4.8c.2.9.5,1.5.9,1.9s.8.5,1.4.5.7,0,1-.2c.3-.1.6-.3.9-.5l.8.7c-.9.9-2,1.6-3.2,2.2-1.2.6-2.8.8-4.8.8s-4.3-.4-5.5-1.3c-1.2-.9-2-2-2.4-3.3l-1.5-6.1c-.4-2.1-.9-3.5-1.6-4.1s-1.7-.9-3-.9h-3.5v-.7h0Z"/>
            <path class="cls-1" d="M517.3,150.8c3.9,0,7.3.7,10.2,2s5.2,3.2,6.8,5.7,2.4,5.6,2.4,9.2-.8,6.6-2.5,9.2c-1.6,2.6-3.9,4.7-6.9,6.2-2.9,1.5-6.3,2.2-10.1,2.2s-7.3-.7-10.2-2-5.2-3.2-6.8-5.8c-1.6-2.5-2.4-5.6-2.4-9.2s.8-6.6,2.5-9.2c1.7-2.6,3.9-4.7,6.9-6.2,2.9-1.5,6.3-2.2,10.1-2.2h0ZM517.1,151.7c-1.7,0-3.2.7-4.4,2.1-1.2,1.4-2.2,3.3-2.9,5.8-.7,2.5-1,5.3-1,8.5s.4,6.1,1.2,8.6c.8,2.4,1.8,4.3,3.2,5.6,1.3,1.3,2.8,2,4.4,2s3.2-.7,4.4-2.1c1.2-1.4,2.2-3.3,2.9-5.8s1-5.3,1-8.5-.4-6.2-1.2-8.6-1.8-4.3-3.1-5.6-2.8-2-4.4-2h-.1Z"/>
            <path class="cls-1" d="M568.8,151.5c0,1.4-.2,2.7-.3,4v4.9c0,.6,0,1.1,0,1.5h-1.2c-.8-3.4-1.9-5.7-3.6-7-1.6-1.3-3.6-2-5.9-2h-.7c-.6,0-1.1,0-1.5.2-.4.1-.7.4-.9.8-.2.4-.3,1-.3,1.9v22.6c0,1.4.2,2.4.6,3.1.4.7,1,1.2,1.9,1.5s2.1.5,3.6.5v1.1c-1.2,0-2.8-.1-4.7-.1h-11.4c-1.7,0-3.1,0-4.1.1v-1.1c1.1,0,2-.2,2.5-.4s.9-.7,1.1-1.3c.2-.7.3-1.6.3-2.9v-21.5c0-1.3,0-2.3-.3-3-.2-.6-.6-1.1-1.1-1.3-.6-.2-1.4-.4-2.5-.4v-1.1c2,0,4.1,0,6.4.1h16.8c2,0,3.8,0,5.4-.1h-.2ZM560.4,167.4v1.1h-7.6v-1.1h7.6ZM563.1,161.3c0,1.7-.2,3-.2,4v5.2c0,1,0,2.4.3,4h-1.2c0-1.1-.5-2.1-1-3s-1.2-1.7-2.1-2.2c-.9-.6-1.9-.8-3.2-.8v-1.1c1.3,0,2.4-.3,3.2-1s1.5-1.5,2-2.4.8-1.8.9-2.7h1.3Z"/>
            <path class="cls-1" d="M603.1,145.3c2.4,0,4.3.4,5.9,1.1,1.5.7,2.9,1.5,4.1,2.5.7.5,1.3.6,1.7.2s.6-1.4.8-3h1.2c0,1.4,0,3.2-.2,5.3v8.3h-1.2c0-1.7-.4-3.3-.7-4.6-.3-1.4-.8-2.6-1.5-3.6s-1.6-2-2.8-2.8c-.8-.5-1.6-.9-2.4-1.2-.8-.3-1.7-.4-2.6-.4-2.1,0-3.8.6-5.1,1.7-1.3,1.1-2.4,2.6-3.1,4.4-.7,1.8-1.3,3.8-1.5,6-.3,2.2-.4,4.2-.4,6.3s0,4.1.4,6.3c.3,2.2.8,4.1,1.5,6,.7,1.8,1.8,3.3,3.1,4.4,1.3,1.1,3,1.7,5.1,1.7s1.8-.2,2.6-.5,1.7-.7,2.4-1.2c1.8-1.1,3-2.6,3.7-4.5.6-1.9,1.1-4.3,1.3-7.3h1.2v8.6c0,2.2,0,4,.2,5.5h-1.2c0-1.6-.4-2.5-.7-2.9s-.9-.3-1.7.2c-1.3.9-2.8,1.8-4.3,2.5s-3.4,1.1-5.8,1.1c-4.1,0-7.7-.8-10.7-2.3-3.1-1.6-5.5-3.8-7.2-6.7s-2.5-6.5-2.5-10.6.9-7.6,2.6-10.6,4.2-5.4,7.2-7.1c3.1-1.7,6.6-2.5,10.6-2.5v-.3Z"/>
            <path class="cls-1" d="M640.9,150.8c3.9,0,7.3.7,10.2,2s5.2,3.2,6.8,5.7,2.4,5.6,2.4,9.2-.8,6.6-2.5,9.2c-1.6,2.6-3.9,4.7-6.9,6.2-2.9,1.5-6.3,2.2-10.1,2.2s-7.3-.7-10.2-2-5.2-3.2-6.8-5.8c-1.6-2.5-2.4-5.6-2.4-9.2s.8-6.6,2.5-9.2c1.7-2.6,3.9-4.7,6.9-6.2,2.9-1.5,6.3-2.2,10.1-2.2h0ZM640.6,151.7c-1.7,0-3.2.7-4.4,2.1-1.2,1.4-2.2,3.3-2.9,5.8s-1,5.3-1,8.5.4,6.1,1.2,8.6c.8,2.4,1.8,4.3,3.2,5.6,1.3,1.3,2.8,2,4.4,2s3.2-.7,4.4-2.1c1.2-1.4,2.2-3.3,2.9-5.8s1-5.3,1-8.5-.4-6.2-1.2-8.6-1.8-4.3-3.1-5.6-2.8-2-4.4-2h-.1Z"/>
            <path class="cls-1" d="M709.8,151.5v1.1c-1.2,0-2.2.2-2.8.4s-1.1.7-1.3,1.3-.3,1.6-.3,3v21.5c0,1.3,0,2.3.3,2.9.2.7.6,1.1,1.3,1.3.6.2,1.6.4,2.8.4v1.1c-1,0-2.4-.1-4-.1h-11.1c-1.9,0-3.5,0-4.6.1v-1.1c1.2,0,2.2-.2,2.8-.4s1.1-.7,1.3-1.3c.2-.7.3-1.6.3-2.9v-23.8l-12,29.8h-.9l-12.6-29.8v21.6c0,1.7.2,2.9.5,3.9.3.9.9,1.6,1.8,2,.9.4,2.1.8,3.8,1v1.1c-.9,0-1.9-.1-3-.1h-6c-.8,0-1.5,0-2.1.1v-1.1c1.1-.3,2-.6,2.5-1s.9-1.1,1.1-2c.2-.9.3-2.2.3-3.9v-19.3c0-1.3,0-2.3-.3-3-.2-.6-.6-1.1-1.3-1.3-.6-.2-1.6-.4-2.8-.4v-1.1c1.2,0,2.8,0,4.8.1h8.9c.9,0,1.6,0,2.3-.1l8.1,19.3-.8.2,7.8-19.4h11.3c1.6,0,3,0,4-.1h0Z"/>
            <path class="cls-1" d="M758.8,151.5v1.1c-1.2,0-2.2.2-2.8.4s-1.1.7-1.3,1.3-.3,1.6-.3,3v21.5c0,1.3,0,2.3.3,2.9.2.7.6,1.1,1.3,1.3.6.2,1.6.4,2.8.4v1.1c-1,0-2.4-.1-4-.1h-11.1c-1.9,0-3.5,0-4.6.1v-1.1c1.2,0,2.2-.2,2.8-.4s1.1-.7,1.3-1.3c.2-.7.3-1.6.3-2.9v-23.8l-12,29.8h-.9l-12.6-29.8v21.6c0,1.7.2,2.9.5,3.9.3.9.9,1.6,1.8,2,.9.4,2.1.8,3.8,1v1.1c-.9,0-1.9-.1-3-.1h-6c-.8,0-1.5,0-2.1.1v-1.1c1.1-.3,2-.6,2.5-1s.9-1.1,1.1-2c.2-.9.3-2.2.3-3.9v-19.3c0-1.3,0-2.3-.3-3-.2-.6-.6-1.1-1.3-1.3-.6-.2-1.6-.4-2.8-.4v-1.1c1.2,0,2.8,0,4.8.1h8.9c.9,0,1.6,0,2.3-.1l8.1,19.3-.8.2,7.8-19.4h11.3c1.6,0,3,0,4-.1h0Z"/>
            <path class="cls-1" d="M790.3,151.5c0,1.4-.2,2.7-.3,4v4.9c0,.6,0,1.1,0,1.5h-1.2c-.8-3.4-1.9-5.7-3.6-7-1.6-1.3-3.6-2-5.9-2h-.7c-.6,0-1.1,0-1.5.2-.4.1-.7.4-.9.8-.2.4-.3,1-.3,1.9v24.7c0,.8,0,1.5.3,1.9.2.4.5.7.9.8s.9.2,1.5.2h1.2c1.6,0,3-.3,4.4-1,1.3-.7,2.5-1.7,3.4-3.2,1-1.5,1.7-3.5,2.2-6h1.2c0,1-.2,2.3-.2,3.9v3.2c0,1.4.2,2.8.3,4.3-1.8,0-3.8-.1-6-.1h-17.3c-2.3,0-4.4,0-6.4.1v-1.1c1.1,0,2-.2,2.5-.4s.9-.7,1.1-1.3c.2-.7.3-1.6.3-2.9v-21.5c0-1.3,0-2.3-.3-3-.2-.6-.6-1.1-1.1-1.3-.6-.2-1.4-.4-2.5-.4v-1.1c2,0,4.1,0,6.4.1h16.8c2,0,3.8,0,5.4-.1h.2ZM781.9,167.4v1.1h-7.6v-1.1h7.6ZM784.6,161.3c0,1.7-.2,3-.2,4v5.2c0,1,0,2.4.3,4h-1.2c0-1.1-.5-2.1-1-3s-1.2-1.7-2.1-2.2c-.9-.6-1.9-.8-3.2-.8v-1.1c1.3,0,2.4-.3,3.2-1s1.5-1.5,2-2.4.8-1.8.9-2.7h1.3Z"/>
            <path class="cls-1" d="M795.2,151.5c.9,0,2,0,3.4.1h13.6c5.6,0,9.6.7,12.1,2.2s3.7,3.5,3.7,6.1-.3,2.2-.8,3.2c-.5,1.1-1.4,2-2.6,2.9-1.2.9-2.9,1.6-5,2.2-2.1.6-4.8.9-8.1,1l-6.8.2v-1.1h6.3c1.7,0,3-.4,3.9-1.1s1.5-1.7,1.8-2.9.5-2.5.5-4c0-2.5-.4-4.5-1.1-5.9-.8-1.4-2.1-2.1-4.1-2.1s-1.7.3-2,.9c-.3.6-.4,1.9-.4,3.7v21.5c0,1.3,0,2.3.3,2.9.2.7.6,1.1,1.1,1.3s1.4.4,2.4.4v1.1c-1.2,0-2.7-.1-4.5-.1h-10.2c-1.4,0-2.6,0-3.4.1v-1.1c1.1,0,2-.2,2.5-.4s.9-.7,1.1-1.3c.2-.7.3-1.6.3-2.9v-21.5c0-1.3,0-2.3-.3-3-.2-.7-.6-1.1-1.1-1.3-.6-.2-1.4-.3-2.5-.4v-1.1.4ZM806.9,168.9c2,0,3.4.1,4.5.2s1.9,0,2.5,0,1.2,0,1.9.2c2.7.3,5,.8,6.9,1.6s3.1,2.2,3.6,4.2l1.1,4.8c.2.9.5,1.5.9,1.9s.8.5,1.4.5.7,0,1-.2c.3-.1.6-.3.9-.5l.8.7c-.9.9-2,1.6-3.2,2.2-1.2.6-2.8.8-4.8.8s-4.3-.4-5.5-1.3c-1.2-.9-2-2-2.4-3.3l-1.5-6.1c-.4-2.1-.9-3.5-1.6-4.1s-1.7-.9-3-.9h-3.5v-.7h0Z"/>
            <path class="cls-1" d="M851.4,150.8c1.7,0,3.1.2,4.3.5s2.1.8,3,1.3c.8.5,1.6,1.1,2.3,1.7,1.4,1.2,2.2.2,2.4-2.8h1.2c0,1.2,0,2.7-.2,4.4v6.9h-1.2c-.3-1.3-.5-2.4-.7-3.2s-.5-1.5-.8-2-.7-1.1-1.2-1.7c-.9-1-2-1.9-3.2-2.6-1.2-.7-2.5-1-3.8-1-2.9,0-5.1,1.4-6.9,4.2s-2.6,6.6-2.6,11.6.4,6.2,1.3,8.5c.9,2.3,2.1,4,3.6,5.2s3.2,1.8,5,1.8,2.6-.3,3.9-.9c1.3-.6,2.4-1.5,3.3-2.6.8-.9,1.3-1.9,1.6-3s.6-2.6.9-4.5h1.2v7.3c0,1.8,0,3.4.2,4.7h-1.2c0-1.6-.4-2.6-.8-3-.4-.5-.9-.4-1.7.2-1.1.9-2.5,1.8-4,2.5-1.6.7-3.5,1.1-5.7,1.1-3.5,0-6.7-.7-9.5-2s-4.9-3.2-6.5-5.8c-1.6-2.5-2.4-5.6-2.4-9.2s.8-6.6,2.4-9.2c1.6-2.6,3.8-4.7,6.6-6.2,2.7-1.5,5.8-2.2,9.2-2.2h0Z"/>
            <path class="cls-1" d="M897.7,151.5c0,1.4-.2,2.7-.3,4v4.9c0,.6,0,1.1,0,1.5h-1.2c-.8-3.4-1.9-5.7-3.6-7-1.6-1.3-3.6-2-5.9-2h-.7c-.6,0-1.1,0-1.5.2-.4.1-.7.4-.9.8-.2.4-.3,1-.3,1.9v24.7c0,.8,0,1.5.3,1.9.2.4.5.7.9.8s.9.2,1.5.2h1.2c1.6,0,3-.3,4.4-1,1.3-.7,2.5-1.7,3.4-3.2,1-1.5,1.7-3.5,2.2-6h1.2c0,1-.2,2.3-.2,3.9v3.2c0,1.4.2,2.8.3,4.3-1.8,0-3.8-.1-6-.1h-17.3c-2.3,0-4.4,0-6.4.1v-1.1c1.1,0,2-.2,2.5-.4s.9-.7,1.1-1.3c.2-.7.3-1.6.3-2.9v-21.5c0-1.3,0-2.3-.3-3-.2-.6-.6-1.1-1.1-1.3-.6-.2-1.4-.4-2.5-.4v-1.1c2,0,4.1,0,6.4.1h16.8c2,0,3.8,0,5.4-.1h.2ZM889.3,167.4v1.1h-7.6v-1.1h7.6ZM891.9,161.3c0,1.7-.2,3-.2,4v5.2c0,1,0,2.4.3,4h-1.2c0-1.1-.5-2.1-1-3s-1.2-1.7-2.1-2.2c-.9-.6-1.9-.8-3.2-.8v-1.1c1.3,0,2.4-.3,3.2-1s1.5-1.5,2-2.4.8-1.8.9-2.7h1.3Z"/>
          </g>
        </g>
      </g>
    </g>
    <metadata>
      <sfw xmlns="http://ns.adobe.com/SaveForWeb/1.0/">
        <slices/>
        <sliceSourceBounds x="28.96" y="-280.19" width="871.74" height="783.78" bottomLeftOrigin="true"/>
      </sfw>
    </metadata>
  </g>
</svg>